<?xml version="1.0" encoding="UTF-8" standalone="no"?>
<!-- Created with Inkscape (http://www.inkscape.org/) -->

<svg
   width="532.47229"
   height="708.4671"
   viewBox="0 0 140.88329 187.44859"
   version="1.1"
   id="svg5"
   xml:space="preserve"
   xmlns="http://www.w3.org/2000/svg"
   xmlns:svg="http://www.w3.org/2000/svg"><defs
     id="defs2" /><g
     id="layer1"
     transform="translate(-5.1718852,-5.7962219)"><path
       style="fill:#000000;stroke-width:0.098494"
       d="m 33.774969,193.19104 c -1.0984,-0.14851 -1.64522,-0.50043 -2.32165,-1.49415 -0.30944,-0.45459 -0.49969,-0.62641 -0.85753,-0.77445 -0.71127,-0.29423 -1.01969,-0.48123 -1.42925,-0.86655 -0.4794,-0.45102 -1.46482,-1.90967 -1.69324,-2.50635 -0.096,-0.25082 -0.19276,-0.45603 -0.215,-0.45603 -0.0222,0 -0.44886,0.19681 -0.94806,0.43735 -1.08741,0.52399 -2.2153,0.77558 -3.52081,0.78535 -1.19433,0.009 -1.51079,-0.14544 -2.32375,-1.13364 -0.79363,-0.96471 -1.29099,-1.18144 -2.70732,-1.17976 -1.23118,10e-4 -1.94641,0.18008 -3.21755,0.80352 -1.30395,0.63956 -1.80006,0.70636 -2.54503,0.34274 -0.4031,-0.19674 -0.69697,-0.45137 -1.12728,-0.97674 -0.32013,-0.39084 -0.9706996,-1.15139 -1.4457096,-1.69011 -1.97444,-2.23923 -2.64629,-3.82065 -3.57161,-8.40698 -0.33347,-1.65284 -0.36703,-1.96454 -0.36544,-3.39402 0.002,-1.76831 0.15023,-2.49332 0.78061,-3.81726 0.76457,-1.60574 1.68422,-2.59814 3.0379,-3.27822 0.37104,-0.18642 0.7018596,-0.40976 0.7351596,-0.49632 0.0333,-0.0866 -0.0368,-0.60519 -0.1558696,-1.15249 -0.263,-1.20925 -1.87812,-10.93567 -2.28076,-13.73495 -0.80386,-5.58865 -0.86892,-8.75639 -0.2437,-11.86447 0.55016,-2.7349 1.48169,-4.57619 3.0279796,-5.98523 1.82811,-1.66584 3.85126,-2.65928 7.61974,-3.74154 l 1.775,-0.50975 0.0288,-1.36965 c 0.0311,-1.47925 -0.0715,-3.32494 -0.33594,-6.04258 -0.14893,-1.53075 -0.15416,-2.03242 -0.0472,-4.52536 0.2097,-4.88779 0.41347,-5.98072 1.58661,-8.50964 l 0.41073,-0.8854 -0.15927,-0.68864 c -0.26589,-1.14964 -0.34851,-1.82359 -0.34911,-2.84765 l -5.9e-4,-0.97847 -0.3544,0.33902 c -0.51704,0.4946 -1.72561,2.11923 -2.30697,3.10117 -0.54818,0.92589 -1.48496,2.76302 -1.92745,3.77995 -0.15304,0.3517 -0.34378,0.71693 -0.42388,0.81162 -0.19473,0.2302 -0.62196,0.2178 -0.93406,-0.0271 -0.36573,-0.287 -1.08591,-1.41752 -1.37714,-2.16179 -0.55702,-1.42354 -1.62296,-6.27384 -1.93567,-8.807792 -0.189,-1.53148 -0.22757,-4.07045 -0.11803,-7.7688 0.21183,-7.15186 0.54031,-11.04903 1.29664,-15.38409 0.16405,-0.9403 0.28548,-1.72224 0.26984,-1.73765 -0.0593,-0.0584 -2.21921,0.95315 -3.1737796,1.48641 -0.54797,0.30612 -1.49603,0.89469 -2.1068,1.30792 -1.86326,1.26065 -1.96145,1.31652 -2.18754,1.24494 -0.11435,-0.0362 -0.26941,-0.16209 -0.34457,-0.27973 -0.23434,-0.36676 -0.007,-2.26814 0.89123,-7.44462 0.90811,-5.23504 1.3359,-7.10826 2.01076,-8.80478 0.35575,-0.89431 3.2707996,-6.75051 3.9910096,-8.01776 1.12787,-1.98453 2.377,-3.66053 4.5679,-6.12892 0.5667,-0.63847 1.01045,-1.18072 0.98612,-1.205 -0.17262,-0.1722 -5.63838,1.13855 -6.85543,1.64401 -0.9253096,0.3843 -2.4672696,1.30822 -3.7980296,2.27573 -1.07852,0.78412 -1.39981,0.8965 -1.67493,0.58583 -0.41104,-0.46413 -0.29352,-1.62998 0.36926,-3.66322 0.23835,-0.73119 0.88216,-2.96235 1.43069,-4.95813 0.54853,-1.99579 1.16221,-4.01007 1.36374,-4.47618 0.45718,-1.05738 1.06873,-2.08459 2.1444796,-3.60203 0.4603,-0.64929 1.28541,-1.82245 1.83357,-2.60701 0.86522,-1.23836 1.29708,-1.7262 3.27484,-3.699374 1.38142,-1.378212 2.66636,-2.562279 3.2643,-3.008048 1.44178,-1.074856 4.0786,-2.9181 6.16318,-4.30832 1.00336,-0.66915 1.86616,-1.25306 1.91733,-1.297575 0.099,-0.08616 -0.30129,-0.556888 -0.74335,-0.874072 -0.17258,-0.12383 -0.84316,-0.282301 -2.06001,-0.486823 -1.91456,-0.321791 -2.12369,-0.385491 -2.21577,-0.674925 -0.0866,-0.272118 -0.003,-0.43487 0.95761,-1.859695 0.92758,-1.376155 1.16134,-1.595617 2.31925,-2.177337 1.16494,-0.585247 1.55136,-0.634989 4.36104,-0.561381 2.72245,0.07132 4.24192,0.246375 6.45661,0.743833 0.70375,0.158075 1.29353,0.273461 1.31062,0.256414 0.0171,-0.01705 -0.43668,-0.760485 -1.00837,-1.652082 -1.06452,-1.660208 -1.18564,-1.979528 -0.86175,-2.2719461 0.29308,-0.264606 2.07334,-1.054216 2.75548,-1.222151 0.59003,-0.145261 0.7203,-0.143964 1.78532,0.01778 2.25095,0.34184 2.86566,0.524561 6.80707,2.0234021 2.13362,0.81136 3.90785,1.475201 3.94276,1.475201 0.0349,0 0.38019,-0.303678 0.76728,-0.67484 0.89505,-0.858223 1.96024,-1.390356 4.91645,-2.4561051 3.87031,-1.395293 5.09572,-1.628307 10.45274,-1.987597 3.41244,-0.22887 4.10535,-0.308862 6.3604,-0.734269 2.45445,-0.463024 3.51682,-0.578809 4.69836,-0.512058 1.27166,0.07184 1.55281,0.189897 1.59311,0.668951 0.0241,0.286164 -0.0388,0.434852 -0.33253,0.78632 -0.42982,0.514312 -1.18238,1.09623 -1.86208,1.439841 l -0.4906,0.248017 1.32777,0.271582 c 3.13352,0.640937 7.63763,1.7957091 8.47704,2.1733591 0.461,0.207408 1.54819,0.625492 2.41596,0.929076 0.86778,0.303584 1.95819,0.742198 2.42313,0.974699 0.46495,0.2325 1.37327,0.60767 2.01849,0.833711 1.29414,0.453374 1.66656,0.652241 2.28857,1.222039 0.49713,0.455401 0.57631,0.926489 0.19993,1.18949 -0.28363,0.198197 -1.78643,0.201694 -2.88343,0.0067 -0.43188,-0.07676 -0.79567,-0.129168 -0.80842,-0.116452 -0.0128,0.01272 0.22968,0.228417 0.53871,0.479333 1.48902,1.208962 6.37954,6.365092 7.772691,8.194824 1.16227,1.526503 2.00789,3.004818 2.60772,4.558883 0.56508,1.464005 0.42723,1.620735 -1.46956,1.670755 -0.96609,0.0255 -1.52888,-0.007 -1.98797,-0.11352 -0.352221,-0.082 -0.654121,-0.13536 -0.670871,-0.11864 -0.0453,0.0452 1.324551,1.83383 2.235811,2.91937 1.1785,1.40387 3.4833,3.83356 4.70645,4.96146 2.67329,2.46513 4.07726,3.26773 7.0606,4.03632 0.85134,0.21933 1.15467,0.25297 1.92063,0.213 1.59603,-0.0833 2.29953,0.14463 2.29953,0.74498 0,0.37604 -2.03598,2.12284 -3.60797,3.09551 -1.18901,0.7357 -2.00625,1.1196 -3.68923,1.73301 -2.08108,0.7585 -2.82117,0.93907 -4.09235,0.99845 -0.59659,0.0279 -1.31721,0.0741 -1.60137,0.10264 l -0.51665,0.052 0.41302,0.60792 c 1.01835,1.49887 2.61481,2.70894 6.01925,4.5624 2.28928,1.24635 2.94715,1.64931 6.03989,3.69962 2.5124,1.66558 2.6259,1.75168 3.77186,2.86141 0.78276,0.75801 0.91215,0.92879 0.91215,1.20393 0,0.34595 -0.28184,0.62691 -0.62888,0.62691 -0.10481,0 -0.67098,0.15495 -1.25817,0.34432 -1.22771,0.39595 -1.94068,0.43677 -3.51635,0.20132 -0.52634,-0.0787 -1.43038,-0.21297 -2.00898,-0.29847 -0.57859,-0.0855 -1.42035,-0.26231 -1.87058,-0.39289 -0.45023,-0.13059 -0.83702,-0.21904 -0.85954,-0.19657 -0.0225,0.0225 0.0165,0.18615 0.0867,0.36373 0.21342,0.53966 2.50509,5.0982 3.79737,7.55362 1.62529,3.08816 2.19415,4.82593 2.72017,8.30979 0.2238,1.48221 0.27388,4.23875 0.0962,5.2927 -0.2844,1.68669 -0.99245,3.09493 -1.80935,3.5986 -0.39931,0.24621 -1.03942,0.27875 -1.43435,0.0729 -0.59682,-0.31107 -1.2877,-1.31777 -1.93851,-2.82471 -0.23269,-0.5388 -0.457,-1.01103 -0.49845,-1.04941 -0.0415,-0.0384 -0.0491,0.31914 -0.017,0.79448 0.13077,1.935 -0.18417,6.49186 -0.63036,9.12106 -0.25554,1.50573 -1.0841,4.82976 -1.52215,6.106602 -0.52341,1.52567 -1.41644,3.24579 -2.28894,4.40892 l -0.76671,1.02211 0.69813,0.7051 c 0.8972,0.90615 2.94192,3.63597 3.8876,5.19016 0.86891,1.42803 2.06754,3.7737 2.61635,5.12007 0.21502,0.52751 0.42094,0.94807 0.45759,0.93459 0.0367,-0.0135 0.36946,-0.43078 0.73959,-0.9273 1.11516,-1.49598 2.71034,-3.17711 5.30764,-5.59353 3.66945,-3.41392 10.93464,-10.74601 13.12705,-13.247912 4.06835,-4.64268 5.77971,-7.68556 6.46245,-11.49062 0.25812,-1.43854 0.3529,-4.7758 0.19138,-6.73885 -0.20413,-2.48095 -1.10936,-8.89271 -1.44074,-10.20481 -0.29149,-1.15411 -0.96013,-3.07089 -2.06827,-5.92909 -0.60836,-1.56912 -1.18163,-3.08195 -1.27393,-3.36185 -0.0923,-0.2799 -0.22085,-0.54946 -0.28567,-0.59903 -0.0648,-0.0496 -0.48619,-0.23592 -0.93634,-0.41412 -1.00099,-0.39626 -1.66909,-0.82006 -2.846,-1.80531 -1.78325,-1.49287 -2.6101,-2.56638 -3.33692,-4.33234 -0.64441,-1.56575 -0.74417,-2.12613 -0.85086,-4.77963 -0.11851,-2.94761 -0.0965,-3.18559 0.80352,-8.68839 l 0.69497,-4.24907 0.49468,-0.88768 c 0.66899,-1.2005 1.37166,-2.66156 2.56543,-5.33428 1.11287,-2.491629 2.10075,-4.51368 2.33346,-4.776288 0.0947,-0.106882 0.29422,-0.172161 0.52614,-0.172161 0.52754,0 0.68043,0.253333 0.68117,1.128636 10e-4,1.492584 0.51769,3.583033 1.33738,5.413453 l 0.17623,0.39351 0.13016,-0.88539 c 0.18228,-1.23996 0.45544,-2.076254 0.90105,-2.758652 0.51321,-0.785926 0.71523,-0.951485 1.11382,-0.912824 0.2422,0.02349 0.37044,0.109587 0.50372,0.338183 0.31333,0.537419 0.64316,1.614703 1.0664,3.483123 0.65417,2.88791 2.10767,6.76076 3.30054,8.7943 0.3808,0.64918 0.8996,2.08538 1.39439,3.86019 0.40107,1.43862 0.46781,1.81285 0.50607,2.83769 0.0675,1.80766 -0.25705,3.25364 -1.27981,5.7021 -0.87256,2.08887 -1.61391,3.42085 -2.60635,4.68284 -0.23667,0.30096 -0.43032,0.59945 -0.43032,0.66332 0,0.0639 0.30724,0.92438 0.68275,1.91224 0.37551,0.98786 1.04155,2.74041 1.48011,3.89456 1.47691,3.88681 1.97384,6.0628 2.27177,9.94785 0.47367,6.17655 -0.72404,15.54812 -2.60949,20.41824 -1.71373,4.42659 -5.27683,10.039382 -9.2669,14.597712 -0.59474,0.67946 -1.77068,1.94542 -2.61319,2.81324 -0.8425,0.86784 -2.86022,3.03834 -4.48382,4.82334 -4.445,4.88687 -7.64865,7.99393 -9.74156,9.44783 -0.34263,0.23803 -0.54594,0.44617 -0.52402,0.53648 0.0197,0.0812 0.0629,0.30839 0.096,0.50495 l 0.0602,0.3574 0.95915,0.0648 c 3.06688,0.20715 3.79913,0.5181 6.50102,2.76068 2.59231,2.15165 3.71989,3.51749 4.68471,5.67456 0.90816,2.0304 1.39311,3.86127 1.55372,5.86591 0.11749,1.46626 0.018,2.56977 -0.42754,4.74233 -1.06922,5.21382 -3.00271,10.50078 -6.03489,16.5019 l -1.10551,2.18797 0.40839,0.10463 c 0.22463,0.0575 0.80779,0.23311 1.29591,0.39012 0.48812,0.15701 1.26468,0.37937 1.72569,0.49413 2.88736,0.71873 4.22288,1.90005 4.83434,4.27615 0.26558,1.03202 0.3752,3.67952 0.20144,4.86506 -0.16855,1.14995 -0.3865,1.66651 -1.27174,3.0141 -1.76059,2.68012 -2.67329,3.42199 -5.90684,4.80124 -1.98117,0.84506 -2.65654,1.04599 -3.74273,1.11349 -1.32552,0.0824 -2.39531,-0.16137 -4.70166,-1.07117 -0.53495,-0.21102 -1.64876,-0.6054 -2.47514,-0.8764 -1.77905,-0.58343 -2.33357,-0.89262 -3.70612,-2.06651 -0.56694,-0.48488 -1.29879,-1.01479 -1.62632,-1.17756 -1.19404,-0.59338 -2.81867,-0.59585 -3.98074,-0.006 -0.54341,0.27581 -0.55105,0.28567 -0.51988,0.67155 0.0551,0.68251 -0.17137,2.62773 -0.41962,3.60402 -0.60708,2.38753 -2.04823,4.43941 -3.497921,4.98027 -0.52219,0.19483 -0.64878,0.2988 -1.07764,0.88521 -0.89902,1.22926 -1.45598,1.48128 -3.26148,1.47586 -1.38133,-0.004 -2.27232,-0.15311 -3.73245,-0.62402 -0.60765,-0.19598 -1.26435,-0.35632 -1.45932,-0.35632 -0.19497,0 -0.85032,0.19246 -1.45633,0.4277 -0.60601,0.23524 -1.26967,0.45403 -1.47479,0.48621 -0.89977,0.14117 -2.16792,-0.31353 -3.91661,-1.40431 -1.59215,-0.99313 -2.59847,-1.87331 -3.42527,-2.99593 -0.24155,-0.32798 -0.45036,-0.60797 -0.46401,-0.6222 -0.0137,-0.0142 -0.19806,0.11203 -0.40978,0.28058 -1.05287,0.83813 -2.34272,1.2749 -5.21689,1.76652 -4.12616,0.70577 -5.36852,0.49702 -7.21354,-1.2121 l -0.31078,-0.28789 -0.41569,0.83691 c -1.03735,2.0885 -2.89468,3.89638 -4.51999,4.39963 -0.99284,0.30742 -2.34512,0.26404 -4.81284,-0.15436 -1.13018,-0.19161 -2.32112,-0.41886 -2.64654,-0.50497 -0.83564,-0.22113 -2.30111,-0.92119 -2.74825,-1.31286 -0.32064,-0.28086 -0.39125,-0.30783 -0.46445,-0.17734 -0.25928,0.46223 -1.06984,1.4261 -1.62948,1.93769 -1.04376,0.95416 -3.30922,2.37767 -4.42724,2.78188 -1.00269,0.36251 -1.7433,0.30203 -3.15206,-0.25742 -1.38444,-0.54981 -1.49676,-0.55034 -3.16388,-0.0149 -1.56937,0.50404 -3.24796,0.71212 -4.4422,0.55066 z m 2.47483,-1.56953 c 0.32542,-0.052 1.11354,-0.25891 1.75139,-0.45973 0.95545,-0.30084 1.15045,-0.39428 1.10711,-0.53051 -0.41743,-1.31208 -0.5577,-3.86467 -0.29779,-5.41895 0.18112,-1.08311 0.56063,-2.38519 0.77673,-2.6649 0.51665,-0.66874 1.534,-0.18875 1.23925,0.58469 -0.25132,0.65944 -0.583,2.16376 -0.67563,3.06428 -0.11989,1.16557 -0.0112,2.55882 0.29368,3.76547 l 0.20741,0.8208 1.15169,0.44133 c 1.43803,0.55105 1.73625,0.55264 2.82224,0.015 1.97361,-0.97703 3.7302,-2.38361 4.5854,-3.67176 0.37228,-0.56075 0.40713,-0.66446 0.35747,-1.06401 -0.23284,-1.8737 -0.252,-2.2622 -0.1547,-3.13666 0.0565,-0.50774 0.1518,-1.1176 0.21178,-1.35524 0.16267,-0.6445 0.67533,-0.96556 1.21305,-0.75972 0.32005,0.12253 0.35815,0.38692 0.19252,1.33622 -0.23277,1.33413 -0.15701,3.25944 0.14762,3.75117 0.50506,0.81527 1.66209,1.55141 2.96384,1.88569 0.34989,0.0899 1.52583,0.31865 2.61319,0.50846 1.6298,0.2845 2.15887,0.33882 3.01243,0.30929 0.92583,-0.032 1.09207,-0.0668 1.57065,-0.32833 0.73575,-0.4021 1.97923,-1.59357 2.53752,-2.43137 0.255,-0.38267 0.6291,-1.07618 0.83132,-1.54113 l 0.36769,-0.84538 -0.19245,-0.29513 c -0.38833,-0.59552 -1.07853,-2.03296 -1.31831,-2.74557 -0.1852,-0.55039 -0.24643,-0.93815 -0.24643,-1.56077 v -0.82845 l -0.54948,-0.87581 c -0.7868,-1.25409 -1.55707,-2.23003 -2.25015,-2.85099 -0.58651,-0.52547 -1.98427,-1.32047 -2.32165,-1.32047 -0.38796,0 -1.21651,-0.32454 -1.53032,-0.5994 -0.43286,-0.37916 -0.51168,-0.64847 -0.64524,-2.20436 -0.0604,-0.70339 -0.21583,-1.74374 -0.34545,-2.31187 -0.31434,-1.3778 -0.50632,-2.87027 -0.68965,-5.36156 -0.18321,-2.48953 -0.53902,-5.25804 -0.99465,-7.73923 l -0.33727,-1.83657 v -8.40726 -8.40725 l -0.66562,-0.57395 c -0.36609,-0.31568 -2.39624,-2.28183 -4.51144,-4.36923 -2.11521,-2.08739 -4.31176,-4.17356 -4.88124,-4.63594 -1.00047,-0.81229 -2.57738,-1.95506 -2.6978,-1.95506 -0.1596,0 1.56513,4.46864 2.53869,6.57752 0.35869,0.777 0.65216,1.49638 0.65216,1.59864 0,0.10226 -0.0933,0.27899 -0.20732,0.39275 -0.18133,0.1809 -0.27712,0.19835 -0.76423,0.13914 -0.491,-0.0597 -1.69717,-0.31744 -2.3683,-0.50612 l -0.23362,-0.0657 0.0609,15.28762 c 0.0335,8.4082 0.0883,17.04067 0.1218,19.18326 0.0444,2.84176 0.0304,3.95256 -0.052,4.1061 -0.17724,0.33038 -0.4968,0.34451 -1.34509,0.0594 -2.57201,-0.86434 -5.49895,0.081 -7.9943,2.58209 -1.58496,1.58858 -2.56276,3.42053 -3.06188,5.73659 -0.26808,1.24394 -0.24522,4.18419 0.0405,5.214 0.61033,2.19955 1.63792,3.76245 2.74436,4.17401 0.6882,0.256 1.06724,0.56721 1.62858,1.33715 0.28214,0.38699 0.60378,0.71346 0.7585,0.76989 0.3502,0.1277 2.07708,0.13852 2.83251,0.0178 z m 60.34309,-3.58427 c 0.21639,-0.0902 0.47355,-0.34626 0.7382,-0.73506 0.4995,-0.7338 0.86884,-1.03499 1.68662,-1.37541 0.78011,-0.32473 1.372041,-1.00401 2.026601,-2.32566 0.76592,-1.5465 1.08953,-3.4605 0.92719,-5.48396 -0.24745,-3.08418 -1.4514,-5.6315 -3.613891,-7.64625 -2.44088,-2.27411 -5.23036,-3.07662 -7.70586,-2.21692 -0.43403,0.15073 -0.85714,0.24804 -0.94023,0.21623 -0.46781,-0.17909 -0.44592,0.43402 -0.51985,-14.55586 -0.0558,-11.31139 -0.0938,-14.04199 -0.19555,-14.04199 -0.0695,0 -0.75193,0.15326 -1.5166,0.34057 -1.47041,0.3602 -3.6113,0.73934 -5.57291,0.98692 -1.24415,0.15703 -5.24846,0.54168 -5.63909,0.54168 h -0.22825 l -9.9e-4,4.7959 c 0,3.80098 -0.0318,4.99998 -0.15102,5.77967 -0.50395,3.29546 -0.66271,4.59152 -0.83749,6.83723 -0.22318,2.86727 -0.40527,4.31509 -0.6929,5.50913 -0.11078,0.45992 -0.26617,1.47812 -0.3453,2.26268 -0.17195,1.70486 -0.24843,1.96589 -0.68914,2.35192 -0.309,0.27067 -1.14064,0.59929 -1.51708,0.59948 -0.29657,0 -1.4184,0.59793 -2.02334,1.07816 -1.12566,0.89359 -2.08367,2.19621 -3.54983,4.82675 -1.45749,2.61496 -1.64621,3.35135 -1.19979,4.68161 0.52521,1.56506 1.52596,3.05989 2.68952,4.01738 1.40074,1.15267 2.15021,1.25868 5.2698,0.74545 2.34206,-0.38531 3.30828,-0.61971 4.09643,-0.99381 0.6812,-0.32335 1.5442,-1.04967 1.77405,-1.49311 0.21232,-0.4096 0.3283,-1.83827 0.2256,-2.77882 -0.22604,-2.06997 -0.22382,-1.96817 -0.0467,-2.14487 0.25,-0.2494 0.76584,-0.21305 1.03517,0.0729 0.49561,0.52631 0.72064,2.67403 0.45876,4.37851 l -0.15789,1.02769 0.32079,0.54635 c 0.71936,1.2252 2.62884,2.80201 4.60766,3.80492 1.08639,0.55061 1.55735,0.55838 2.82795,0.0467 0.55052,-0.22171 1.0466,-0.40311 1.10237,-0.40311 0.106,0 0.30568,-0.62102 0.52194,-1.62322 0.165,-0.76469 0.16501,-3.26872 2e-5,-4.03348 -0.0701,-0.32464 -0.23623,-0.95218 -0.36928,-1.39454 -0.14362,-0.47744 -0.21679,-0.90426 -0.18004,-1.05031 0.0942,-0.37438 0.3725,-0.57406 0.74987,-0.53798 0.28057,0.0268 0.36219,0.0975 0.54767,0.47421 0.83955,1.70526 1.0856,5.05304 0.5421,7.37598 l -0.17209,0.7355 0.98796,0.32797 c 0.54337,0.18039 1.29857,0.38773 1.67822,0.46074 0.94608,0.18197 2.6267,0.18864 3.0502,0.0121 z m -72.12708,-1.3972 c 0.35253,-0.0787 0.99597,-0.33274 1.42986,-0.56451 0.9102,-0.48622 0.84943,-0.27301 0.65271,-2.29007 -0.36243,-3.71619 0.88989,-7.49074 3.3589,-10.12387 l 0.58924,-0.62841 -0.29913,-0.37274 c -0.50331,-0.62716 -1.26279,-1.95962 -2.17501,-3.81594 -1.48219,-3.01616 -1.86619,-4.11045 -3.34862,-9.54261 -1.23087,-4.51037 -1.7317,-6.54089 -2.23236,-9.05072 -0.54403,-2.72722 -0.67802,-3.76179 -0.93006,-7.18155 -0.22844,-3.09952 -0.35468,-4.1282 -0.84369,-6.87486 -0.48342,-2.71522 -0.61991,-3.6771 -0.734,-5.17272 -0.0551,-0.72213 -0.11549,-1.32826 -0.13424,-1.34696 -0.0577,-0.0575 -2.93828,0.80563 -3.94838,1.18312 -3.00959,1.12475 -5.00197,2.65296 -5.9804596,4.58717 -1.02419,2.02455 -1.57475,5.16371 -1.43913,8.20558 0.0729,1.63392 0.26601,3.61889 0.56093,5.76401 0.30311,2.20467 2.1415096,13.3239 2.3604896,14.27691 0.24775,1.07823 0.24773,1.66319 -6e-5,2.14775 -0.22122,0.43261 -0.4474,0.60874 -1.4511796,1.13012 -0.82463,0.42833 -1.22775,0.7923 -1.75478,1.58443 -1.33585,2.00777 -1.51714,3.82661 -0.75455,7.57026 0.71401,3.50518 1.33688,5.16622 2.45321,6.54209 1.2154596,1.49806 2.7519496,3.19731 2.9202996,3.22966 0.0954,0.0183 0.69385,-0.21419 1.32992,-0.51669 1.16467,-0.5539 2.16672,-0.83894 2.96032,-0.84208 0.39897,-0.002 0.4257,-0.0179 0.37283,-0.2281 -0.32513,-1.29236 -0.59914,-4.79606 -0.51315,-6.56166 0.10692,-2.19533 0.45847,-4.82197 0.74392,-5.55814 0.26462,-0.68246 0.80299,-0.8563 1.1782,-0.38042 0.25943,0.32904 0.25665,0.48007 -0.0411,2.23371 -0.45838,2.69941 -0.49675,6.10492 -0.0988,8.77129 0.27473,1.84094 0.22219,1.72119 0.8391,1.91247 0.95812,0.29708 1.37129,0.5931 2.05316,1.47104 0.23561,0.30338 0.502,0.58385 0.59196,0.62329 0.22011,0.0965 1.4928,-0.004 2.28371,-0.18085 z m 96.943321,-5.04731 c 1.14493,-0.29522 2.45612,-0.88023 2.55513,-1.14001 0.0462,-0.12124 0.13549,-0.57167 0.1984,-1.00097 0.27499,-1.87616 -0.53051,-3.86367 -2.04094,-5.03592 -1.07528,-0.83454 -1.18893,-1.04769 -0.81292,-1.52459 0.29229,-0.3707 0.64683,-0.3341 1.35891,0.14028 0.88,0.58624 1.72292,1.55591 2.22864,2.56375 0.56668,1.12932 0.76677,2.04165 0.72636,3.31198 l -0.0315,0.99023 0.39444,-0.21304 c 1.00277,-0.54158 3.07907,-3.02684 3.70147,-4.43052 0.30731,-0.69308 0.42203,-1.75085 0.35906,-3.31053 -0.0675,-1.67137 -0.18063,-2.28823 -0.57139,-3.11543 -0.54051,-1.14417 -1.51644,-1.75938 -3.63706,-2.29276 -0.461,-0.11595 -1.31269,-0.36263 -1.89265,-0.54817 -0.57995,-0.18555 -1.42079,-0.37824 -1.86853,-0.42822 -1.32492,-0.14788 -1.35831,-0.34988 -0.36239,-2.19207 3.54911,-6.56492 5.98137,-13.03471 7.13124,-18.96902 0.51472,-2.6564 0.25843,-5.27663 -0.77801,-7.95395 -0.96787,-2.50022 -1.98778,-3.85237 -4.4569,-5.90879 -2.72819,-2.27217 -2.85836,-2.33042 -5.84866,-2.61721 l -0.63079,-0.0605 0.0612,0.57218 c 0.43441,4.06357 0.24839,7.62111 -0.61951,11.84785 -1.90361,9.27067 -2.18224,10.33049 -3.63096,13.81058 -0.62027,1.49002 -2.28223,4.7357 -3.27434,6.39453 -0.73272,1.22512 -4.33626,6.8142 -4.884,7.57506 -0.72178,1.00262 -2.24176,3.24112 -2.54655,3.75033 l -0.36049,0.60226 0.3862,0.83392 c 0.38958,0.84125 0.80997,2.11366 0.96791,2.92963 0.0943,0.48703 0.12395,0.49659 0.78746,0.25354 0.66583,-0.24388 1.78946,-0.38018 2.55999,-0.31051 1.5191,0.13732 2.39037,0.55306 3.93127,1.87585 1.32555,1.13791 1.78136,1.38821 3.59523,1.97426 0.78566,0.25385 1.97996,0.68023 2.65399,0.94754 2.18868,0.86795 3.29166,1.02885 4.65071,0.67843 z m -57.301771,-5.00577 c 0,-0.1544 1.70394,-3.13703 2.34371,-4.1025 0.77178,-1.16469 2.36236,-2.79898 3.2278,-3.3165 0.56872,-0.34009 1.41554,-0.662 2.28504,-0.86861 l 0.41143,-0.0978 0.0592,-0.66231 c 0.13129,-1.469 0.26798,-2.43822 0.45173,-3.20287 0.27197,-1.13176 0.46288,-2.6389 0.63772,-5.03451 0.17202,-2.35692 0.3474,-3.8794 0.6946,-6.02991 0.23495,-1.45522 0.24291,-1.6669 0.24291,-6.45544 v -4.95087 l -1.99687,0.0489 c -4.01498,0.0983 -8.1577,-0.38815 -11.21697,-1.31704 -1.79209,-0.54414 -3.99554,-1.54169 -5.37429,-2.43303 l -0.69028,-0.44627 -0.0253,7.6403 -0.0253,7.6403 0.29396,1.62669 c 0.29033,1.60659 0.59038,3.5383 0.78752,5.06991 0.0557,0.43286 0.19016,1.92776 0.29878,3.322 0.21994,2.82305 0.30632,3.49187 0.64466,4.99089 0.12823,0.56813 0.28562,1.60847 0.34977,2.31187 0.0641,0.7034 0.15618,1.32864 0.20453,1.38941 0.0483,0.0608 0.35621,0.16317 0.68415,0.22754 0.32794,0.0644 0.80086,0.20453 1.05094,0.31146 1.4117,0.6037 3.10113,2.18783 4.22374,3.96049 0.26713,0.42181 0.43676,0.56858 0.43676,0.3779 z m -32.1159,-4.78176 c 0.99737,-0.75164 2.52643,-1.42731 3.8233,-1.68947 0.83446,-0.16868 2.8596,-0.16052 3.28593,0.0132 0.18363,0.0748 0.18638,0.0173 0.10885,-2.27625 -0.0437,-1.29418 -0.10634,-9.74448 -0.13909,-18.77846 l -0.0595,-16.4254 -0.85238,-0.31372 c -2.62425,-0.96588 -4.2037,-2.04059 -6.44832,-4.38769 -2.14934,-2.24747 -3.54242,-4.62333 -6.15065,-10.48979 -1.32372,-2.97733 -2.19722,-5.14924 -2.92753,-7.2791 l -0.48357,-1.41029 -0.22649,0.4961 c -0.3234,0.70838 -0.67209,2.16368 -0.79266,3.30826 -0.057,0.54108 -0.15651,2.20119 -0.22114,3.68915 -0.11109,2.55749 -0.10569,2.821 0.0987,4.82049 0.14995,1.46702 0.24401,3.30581 0.30696,6.00103 0.10798,4.62254 0.13128,4.85669 0.93498,9.39504 0.39679,2.24063 0.5291,3.34353 0.74048,6.17251 0.42269,5.657 0.82302,7.73166 3.1181,16.15916 1.48387,5.44871 1.90232,6.62831 3.44522,9.71187 0.82883,1.65646 1.92751,3.51989 2.07534,3.51989 0.0273,0 0.19088,-0.10646 0.36353,-0.23657 z m 71.222031,-4.14123 c 0.99148,-1.42264 4.04404,-6.10449 4.8427,-7.42749 2.11003,-3.49528 3.61797,-6.68255 4.65438,-9.83774 0.47281,-1.43941 0.78297,-2.71723 1.54014,-6.34534 1.45491,-6.97136 1.53027,-7.4822 1.59626,-10.82152 0.0539,-2.72849 -0.0574,-4.32778 -0.46668,-6.70603 -0.73706,-4.28284 -2.65135,-9.55803 -4.78422,-13.18395 -1.40205,-2.38349 -3.28699,-4.90074 -4.5014,-6.01141 l -0.24589,-0.2249 -0.9987,1.15949 c -0.54929,0.63771 -1.30157,1.58004 -1.67174,2.09406 -0.5704,0.79205 -0.71909,0.93914 -0.97501,0.96444 -0.25359,0.0251 -0.3676,-0.0445 -0.71147,-0.43424 -0.90794,-1.02904 -1.22518,-1.88204 -1.34338,-3.61221 -0.0398,-0.5822 -0.0903,-1.04059 -0.11229,-1.01868 -0.022,0.0219 -0.194431,1.16384 -0.383231,2.53757 -0.18879,1.37374 -0.54124,3.87007 -0.78321,5.5474 -0.75065,5.20365 -0.76955,5.83852 -0.33345,11.20653 l 0.2151,2.64769 -0.27853,0.23901 c -0.26544,0.22778 -0.32065,0.23592 -1.1745,0.17324 -0.49278,-0.0362 -2.15742,-0.26166 -3.69919,-0.50106 -1.54177,-0.2394 -2.83973,-0.43527 -2.88436,-0.43527 -0.0446,0 -0.0811,1.94457 -0.0811,4.32127 v 4.32126 l 0.95272,0.66267 c 1.18161,0.82188 1.31533,0.95448 1.31533,1.30431 0,0.43397 -0.57184,0.81618 -1.71879,1.14882 l -0.57882,0.16787 0.0671,13.09752 c 0.0369,7.20363 0.0927,13.28362 0.1239,13.51107 0.0556,0.40526 0.063,0.41216 0.36675,0.34432 0.17049,-0.0381 0.93122,-0.0663 1.69052,-0.0627 1.23361,0.006 1.46977,0.0357 2.21875,0.28063 1.96169,0.64139 3.8664,1.94094 5.277291,3.60061 l 0.56705,0.66704 0.80618,-1.19528 c 0.4434,-0.6574 1.11471,-1.63796 1.49181,-2.17904 z M 75.496909,140.25698 c 4.77113,-0.29388 8.35117,-0.76256 11.58677,-1.51688 1.00336,-0.23391 2.17335,-0.48434 2.59996,-0.55651 l 0.77567,-0.13121 -1.12081,-0.75368 c -2.11201,-1.42023 -5.0734,-4.25006 -7.18994,-6.87057 -2.10332,-2.60414 -4.02826,-6.55396 -4.07229,-8.35603 -0.0146,-0.59645 0,-0.64236 0.25736,-0.78702 0.25363,-0.1428 0.29877,-0.13918 0.64098,0.0514 0.20246,0.11275 0.96718,0.54084 1.69937,0.95132 3.33581,1.87012 7.33967,3.29996 11.19232,3.99698 0.99441,0.17989 3.66084,0.5996 4.81831,0.7584 l 0.47941,0.0658 -0.0603,-0.48011 c -0.15811,-1.25909 -0.36358,-4.6769 -0.36597,-6.08762 -0.003,-1.62496 0.1429,-3.18223 0.55214,-5.90264 0.13023,-0.86573 0.43927,-3.05708 0.68674,-4.86969 0.24749,-1.8126 0.49466,-3.51238 0.54928,-3.77729 0.0546,-0.26492 0.34553,-1.0175 0.64646,-1.67242 0.71188,-1.54926 0.66163,-1.46366 0.957801,-1.63144 0.2348,-0.13302 0.28034,-0.12809 0.52913,0.0572 0.46006,0.34267 0.82793,1.93822 1.01139,4.38667 0.0606,0.80935 0.15645,1.39224 0.27234,1.65683 l 0.17878,0.40818 0.53721,-0.67305 c 0.29547,-0.37017 1.09422,-1.30816 1.775,-2.0844 2.92729,-3.33776 3.69344,-4.74357 4.68935,-8.604572 1.14997,-4.45827 1.42536,-6.91232 1.43669,-12.8027 0.008,-4.27995 0.0625,-5.12696 0.34161,-5.33528 0.24486,-0.18274 0.92818,-0.10911 1.0946,0.11795 0.0654,0.0892 0.28408,0.63446 0.48598,1.21165 1.1723,3.35145 2.04136,5.34998 2.5107,5.77373 0.18386,0.16599 0.20526,0.16643 0.3809,0.008 0.30756,-0.27768 0.7128,-1.30612 0.87072,-2.20974 0.20194,-1.15551 0.12215,-3.94876 -0.15917,-5.57212 -0.45484,-2.62469 -0.98396,-4.32948 -1.89307,-6.0994 -0.3613,-0.7034 -1.30766,-2.5406 -2.10302,-4.08266 -1.62757,-3.15558 -2.22914,-4.42671 -2.77021,-5.85346 -0.46583,-1.22833 -0.49477,-1.66801 -0.12802,-1.94458 l 0.26513,-0.19992 0.96751,0.3983 c 1.85802,0.76489 2.29656,0.86967 5.68387,1.35804 1.21653,0.17539 1.9695,0.15448 2.50999,-0.0697 l 0.31916,-0.13239 -0.5679,-0.45599 c -0.62615,-0.50275 -4.53756,-3.11556 -6.09011,-4.06817 -0.54235,-0.33278 -1.47423,-0.86334 -2.07082,-1.17903 -4.58855,-2.42805 -6.4733,-4.02298 -7.70642,-6.52144 -0.48742,-0.98755 -0.50794,-1.28284 -0.10692,-1.53874 0.15848,-0.10114 0.82961,-0.17035 2.39161,-0.24665 2.37346,-0.11594 2.68909,-0.1744 4.63284,-0.85806 1.63658,-0.57562 3.43073,-1.4547 4.43749,-2.17421 l 0.78888,-0.56381 -0.49305,-0.0626 c -0.75538,-0.0959 -2.74143,-0.64979 -3.6715,-1.02394 -2.05362,-0.82613 -3.49294,-1.91469 -6.4913,-4.90943 -3.17353,-3.16968 -5.290391,-5.70941 -6.829331,-8.19358 -0.67818,-1.094715 -0.73907,-1.38948 -0.35008,-1.69473 0.36357,-0.285305 0.58152,-0.258807 1.53405,0.18651 1.05537,0.493395 1.786201,0.690625 2.824401,0.762225 l 0.82177,0.05671 -0.46371,-0.924379 c -0.94094,-1.875741 -2.264981,-3.64214 -4.356411,-5.811939 -0.6946,-0.720616 -1.8837,-1.97064 -2.64245,-2.777831 -0.75876,-0.807191 -1.86768,-1.8744 -2.46427,-2.371575 -1.26493,-1.054134 -1.88327,-1.693337 -2.3441,-2.423164 -0.45423,-0.719395 -0.59434,-1.1024 -0.52282,-1.429175 0.0599,-0.273857 0.0496,-0.280775 -0.90289,-0.602931 -0.52993,-0.179243 -1.3407,-0.498213 -1.80171,-0.708823 -0.59398,-0.271361 -1.6139,-0.571835 -3.50068,-1.031314 -4.83097,-1.176469 -6.72564,-1.549019 -8.5604,-1.683232 -0.49843,-0.03646 -1.00341,-0.102149 -1.12218,-0.145972 -0.26892,-0.09922 -0.45352,-0.6901411 -0.32277,-1.0332151 0.109,-0.28601 0.21433,-0.334518 1.67274,-0.770365 0.62371,-0.186398 1.37808,-0.453859 1.67638,-0.594358 l 0.54236,-0.255452 -0.64097,0.04754 c -0.35254,0.02615 -1.43972,0.200581 -2.41597,0.387632 -2.33597,0.447577 -2.92061,0.516535 -6.3604,0.750203 -3.22966,0.219395 -4.82536,0.395471 -6.2684,0.691688 -1.29454,0.265731 -1.43456,0.308571 -3.93781,1.2048771 -3.34178,1.196544 -4.40347,1.773544 -4.93815,2.683738 -0.30666,0.522043 -0.57877,0.733762 -0.94306,0.733762 -0.1462,0 -2.1221,-0.704203 -4.3909,-1.564897 -2.26879,-0.860692 -4.32476,-1.618209 -4.56882,-1.683369 -0.24406,-0.06516 -1.06027,-0.217317 -1.81379,-0.338125 -1.52883,-0.245109 -1.90903,-0.218772 -2.7136,0.18797 l -0.49258,0.249019 1.38722,2.162707 c 1.48952,2.322199 1.54443,2.472629 1.02628,2.811336 -0.22129,0.14465 -0.38012,0.122669 -2.44191,-0.337958 -3.55183,-0.793522 -4.24222,-0.896169 -6.78492,-1.008779 -2.88838,-0.12792 -3.47205,-0.08699 -4.30512,0.301931 -0.35089,0.163816 -0.76906,0.390955 -0.92925,0.504754 -0.26701,0.189674 -1.13857,1.351131 -1.0609,1.413779 0.0184,0.01486 0.52001,0.100622 1.11465,0.190589 0.59465,0.08997 1.26965,0.254599 1.50001,0.365851 0.23036,0.111252 0.84211,0.601914 1.35945,1.09036 0.86268,0.814511 0.94061,0.918624 0.94061,1.256721 0,0.226556 -0.0665,0.428274 -0.17257,0.523365 -0.0949,0.0851 -1.19319,0.836309 -2.44062,1.669355 -5.89221,3.934889 -7.26842,4.991124 -9.76247,7.492667 -1.72463,1.729819 -2.22459,2.299029 -2.99061,3.404799 -0.50587,0.73025 -1.31359,1.88111 -1.79491,2.55745 -1.13432,1.59391 -1.74215,2.61652 -2.1343496,3.59078 -0.17426,0.43286 -0.78264,2.46927 -1.35196,4.52536 -0.56932,2.05608 -1.16809,4.1257 -1.33059,4.59914 -0.1625,0.47344 -0.28088,0.8608 -0.26305,0.8608 0.0178,0 0.42548,-0.24741 0.9059,-0.54979 1.85592,-1.16817 2.7793296,-1.53773 5.6167596,-2.2479 2.34411,-0.5867 3.99578,-0.88633 5.48823,-0.99562 1.14497,-0.0838 1.45467,0.0385 1.45272,0.57372 -0.001,0.3478 -0.14182,0.52737 -2.9333,3.74796 -1.76683,2.03842 -2.69812,3.26524 -3.5569,4.68563 -0.73047,1.20815 -3.9195,7.51222 -4.3606196,8.62005 -0.5283,1.32676 -1.05509,3.61122 -1.76877,7.67045 -0.8202,4.66502 -0.99709,5.86191 -0.85321,5.7732 0.0565,-0.0349 0.54866,-0.34717 1.0936,-0.69402 1.89141,-1.20385 5.4530496,-2.77635 6.2883396,-2.77635 0.29831,0 0.59604,0.30867 0.58992,0.6116 -0.002,0.12353 -0.16013,0.99933 -0.35029,1.94621 -0.79273,3.94709 -1.22143,8.06973 -1.44754,13.9204 -0.13789,3.56787 -0.13931,8.69627 -0.003,9.88693 0.32375,2.822597 1.52934,8.170567 2.05188,9.102087 0.0802,0.14297 0.23741,-0.0981 0.87428,-1.34041 1.63669,-3.19273 3.52064,-5.51945 5.59825,-6.913967 0.47191,-0.31675 0.56905,-0.31907 0.91542,-0.0218 l 0.27455,0.2356 -0.17732,1.018707 c -0.36386,2.09048 -0.31548,3.5446 0.17187,5.16598 0.36772,1.22334 1.998,5.75841 2.59379,7.21532 0.94517,2.31126 2.97103,6.7804 3.78562,8.35123 1.39774,2.69537 2.44744,4.13473 4.36012,5.97865 1.81011,1.74504 2.82968,2.40496 4.97963,3.22313 1.05991,0.40334 3.02456,1.04032 3.20872,1.04032 0.0954,0 -0.0194,-0.3624 -0.38185,-1.20512 -1.24393,-2.89227 -2.65172,-7.05185 -2.59309,-7.66179 0.0242,-0.25137 0.0999,-0.36244 0.31768,-0.46611 0.33314,-0.15853 0.58979,-0.058 2.03139,0.79599 2.45728,1.45563 3.83262,2.62964 8.67776,7.40746 4.72859,4.6629 5.91454,5.66257 8.09432,6.82297 1.84353,0.98141 4.23057,1.77997 6.63994,2.22135 3.3032,0.60513 6.30024,0.72509 10.95385,0.43844 z m -15.67912,-27.79666 c -3.16812,-0.36029 -5.25695,-0.95542 -7.88887,-2.24766 -2.72497,-1.33793 -4.94527,-2.95663 -7.34934,-5.35803 -4.55708,-4.552 -8.14336,-10.810232 -10.34751,-18.056882 -0.73365,-2.41204 -1.50666,-5.75193 -1.73667,-7.50348 -0.0375,-0.28528 -0.1046,-0.54119 -0.1492,-0.56869 -0.0446,-0.0275 -0.61494,0.21698 -1.26743,0.54328 -1.11349,0.55686 -1.58334,0.68912 -1.84023,0.518 -0.12622,-0.0841 -0.33524,-0.45776 -0.33524,-0.59934 0,-0.30334 0.62903,-0.7693 1.8878,-1.39839 0.75149,-0.37558 1.36635,-0.70048 1.36635,-0.72201 0,-0.0215 -0.0633,-0.62995 -0.14069,-1.35204 -0.0774,-0.72208 -0.17092,-1.76665 -0.20786,-2.32125 l -0.0672,-1.00837 h -0.27466 c -0.15106,0 -0.88956,0.0632 -1.64109,0.14047 -2.52852,0.25993 -2.94492,0.23451 -3.05076,-0.18621 -0.20745,-0.82459 0.10832,-0.97553 2.56896,-1.22794 1.08298,-0.11109 2.04101,-0.20198 2.12893,-0.20198 0.14186,0 0.16703,-0.29658 0.22339,-2.63159 0.0349,-1.44738 0.10933,-3.13624 0.16534,-3.75302 0.056,-0.61678 0.09,-1.13203 0.0755,-1.145 -0.0145,-0.013 -1.15793,-0.12026 -2.54095,-0.23841 -2.00903,-0.17164 -2.56414,-0.24999 -2.7611,-0.38972 -0.45619,-0.32363 -0.33937,-0.90181 0.22981,-1.13736 0.26284,-0.10878 0.65755,-0.10027 2.48198,0.0535 1.1932,0.10056 2.30333,0.20686 2.46696,0.23622 l 0.29752,0.0534 0.16982,-1.26678 c 0.62946,-4.69545 2.07767,-9.96542 3.90761,-14.21964 0.44024,-1.02345 0.80043,-1.89064 0.80043,-1.92707 0,-0.0364 -0.36609,-0.35646 -0.81354,-0.71116 -2.39169,-1.89594 -4.30236,-4.20993 -5.46098,-6.6137 -1.57949,-3.27698 -1.32931,-6.2563 0.69492,-8.27564 1.09819,-1.095537 2.45205,-1.743889 4.3187,-2.068183 1.36667,-0.237433 4.15115,-0.142603 5.7477,0.195746 2.23115,0.47284 3.99921,1.094187 6.19747,2.177967 l 1.46416,0.72185 0.6982,-0.446475 c 0.84791,-0.542215 2.71232,-1.485341 3.71999,-1.881789 6.21575,-2.445464 12.7122,-2.002437 18.6595,1.272494 l 1.05749,0.582305 0.76681,-0.383345 c 1.75891,-0.879288 3.94762,-1.62617 6.14112,-2.095603 0.90005,-0.192622 1.32547,-0.221631 3.25416,-0.221896 2.08844,-2.96e-4 2.27481,0.01489 3.17347,0.25835 2.17271,0.588635 3.72933,1.744945 4.54921,3.379309 0.41363,0.82456 0.58804,1.65865 0.58482,2.79674 -0.004,1.43356 -0.3235,2.61787 -1.1542,4.27942 -0.84887,1.69788 -1.92247,3.12214 -3.60885,4.78759 l -1.36128,1.34439 0.71996,1.55775 c 1.20644,2.61031 2.09668,5.0263 2.90953,7.89599 0.22112,0.78066 0.41323,1.43055 0.42691,1.4442 0.0137,0.0136 0.91177,-0.37233 1.99576,-0.85773 2.50557,-1.12197 2.73263,-1.20017 3.05678,-1.05283 0.46306,0.21048 0.44837,0.90902 -0.0261,1.23925 -0.14902,0.10373 -1.24719,0.62183 -2.44038,1.15135 -1.19319,0.52952 -2.18779,0.97869 -2.21022,0.99815 -0.0224,0.0195 0.0802,0.6563 0.22797,1.41517 0.30976,1.59034 0.70151,4.21254 0.80157,5.36536 l 0.0688,0.79267 0.92702,-0.1185 c 1.97133,-0.25199 2.48612,-0.27027 2.75018,-0.0977 0.5017,0.32795 0.22499,1.14514 -0.43387,1.28132 -0.27902,0.0577 -2.73515,0.34765 -2.957,0.34912 -0.11236,7.8e-4 -0.12311,0.31345 -0.0635,1.84546 0.0395,1.01452 0.093,1.86672 0.11878,1.89377 0.0258,0.0271 1.52634,0.0713 3.33447,0.0984 l 3.28754,0.0492 0.2543,0.23849 c 0.34888,0.32721 0.34972,0.82593 0.002,1.05339 -0.22837,0.14928 -0.5727,0.15963 -3.59929,0.10817 l -3.34677,-0.0569 v 0.37507 c 0,1.99135 -0.43157,6.42119 -0.88975,9.13282 -1.74592,10.33296 -6.28433,19.65077 -12.44943,25.559992 -1.45522,1.39483 -2.45257,2.19553 -4.11494,3.30361 -3.09439,2.0626 -6.55938,3.36372 -10.03949,3.76984 -1.11358,0.12995 -3.30782,0.17414 -4.11116,0.0828 z m 4.39533,-1.66379 c 6.13144,-0.85316 11.8533,-4.59576 16.44872,-10.75891 2.50901,-3.364982 4.8609,-7.996722 6.36613,-12.537282 1.60584,-4.84401 2.58084,-10.31399 2.78427,-15.62047 l 0.0628,-1.63694 -1.3217,-0.0586 c -0.72693,-0.0322 -3.36295,-0.0842 -5.8578,-0.11554 -4.14475,-0.0521 -4.55737,-0.0721 -4.78263,-0.23291 -0.37003,-0.26407 -0.46521,-0.6237 -0.25128,-0.94942 l 0.17586,-0.26776 6.01822,0.0723 6.01823,0.0723 -0.0522,-1.73527 c -0.0287,-0.9544 -0.0748,-1.75782 -0.10246,-1.78538 -0.0276,-0.0276 -3.52738,0.35419 -7.77724,0.84835 -4.24986,0.49415 -7.92285,0.90227 -8.16221,0.90692 -0.35699,0.007 -0.4766,-0.0396 -0.66563,-0.25879 -0.27491,-0.31885 -0.29106,-0.55336 -0.0579,-0.84041 0.16071,-0.19781 0.59968,-0.2622 6.38505,-0.93668 3.41687,-0.39835 7.11147,-0.82531 8.21023,-0.94879 l 1.99774,-0.22452 -0.0575,-0.49752 c -0.30573,-2.64277 -0.80114,-5.80013 -1.00691,-6.41726 -0.0678,-0.2034 -0.50056,-0.0217 -8.84768,3.7157 -4.827,2.16126 -8.93788,3.9557 -9.13529,3.98764 -0.28368,0.0459 -0.40254,0.0146 -0.56701,-0.14953 -0.25996,-0.25934 -0.26848,-0.71283 -0.0176,-0.9393 0.10474,-0.0946 4.2427,-1.98699 9.19546,-4.20539 4.95276,-2.21839 9.01144,-4.04041 9.01929,-4.04894 0.0316,-0.0343 -0.84928,-3.05593 -1.19714,-4.10655 -0.75385,-2.27687 -1.66821,-4.50096 -2.67532,-6.50747 -0.2915,-0.58075 -0.53,-1.16421 -0.53,-1.29658 0,-0.1827 0.24587,-0.45419 1.02094,-1.12733 1.97558,-1.71576 3.44797,-3.52896 4.36401,-5.37414 1.16554,-2.34772 1.32833,-4.23979 0.49892,-5.799 -0.643,-1.208785 -1.85305,-2.04253 -3.66512,-2.525327 -1.07328,-0.285956 -3.67075,-0.309283 -5.12702,-0.04604 -2.22388,0.401987 -4.3499,1.116962 -6.45845,2.171927 -0.59551,0.29796 -1.15485,0.54173 -1.24296,0.54173 -0.0881,0 -0.66766,-0.29065 -1.28785,-0.64591 -1.50457,-0.861825 -2.58483,-1.34911 -4.12673,-1.861454 -6.03338,-2.004801 -12.32413,-1.070313 -17.9089,2.660354 -0.68402,0.45693 -1.31296,0.83079 -1.39764,0.83079 -0.0847,0 -0.29049,-0.11461 -0.45736,-0.25469 -0.22913,-0.19235 -0.3034,-0.33648 -0.3034,-0.58885 0,-0.30821 -0.0442,-0.35639 -0.56841,-0.62041 -1.04204,-0.52478 -2.6558,-1.177115 -3.78629,-1.53056 -3.77868,-1.181367 -7.16647,-1.222347 -9.50012,-0.11491 -3.19101,1.5143 -3.52671,5.11613 -0.85513,9.17508 1.08503,1.64849 2.45481,3.09133 4.47609,4.7148 0.63563,0.51053 1.20351,1.01738 1.26195,1.12633 0.0879,0.16376 -0.0127,0.45782 -0.5798,1.69612 -2.11552,4.6192 -3.46124,9.17375 -4.29605,14.53985 -0.13947,0.89652 -0.25358,1.67507 -0.25358,1.7301 0,0.055 0.74328,0.20048 1.65173,0.32321 2.22834,0.30105 4.68929,0.71355 7.12463,1.19422 2.30924,0.45577 6.17791,1.34663 6.43334,1.48144 0.28581,0.15084 0.48255,0.62771 0.37519,0.9094 -0.19148,0.50244 -0.32176,0.49886 -2.788,-0.0768 -2.90473,-0.67795 -5.75271,-1.24231 -8.45802,-1.67607 -2.39261,-0.38363 -4.44755,-0.6705 -4.48629,-0.6263 -0.0795,0.0907 -0.24703,3.67195 -0.24703,5.28078 0,1.79364 0.009,1.88116 0.19056,1.88116 0.1048,0 2.61777,-0.24195 5.58437,-0.53767 5.48225,-0.54649 5.65498,-0.55265 5.88429,-0.21003 0.0399,0.0595 0.0731,0.24526 0.074,0.41272 0.003,0.64232 0.14152,0.6141 -6.04273,1.2327 -3.10263,0.31034 -5.64185,0.56734 -5.64272,0.5711 -0.0506,0.21932 0.30954,4.13439 0.38742,4.21209 0.0263,0.0262 0.5271,-0.15264 1.11292,-0.39748 2.57124,-1.07463 7.27036,-2.49996 8.86788,-2.68979 0.43164,-0.0513 0.53617,-0.0295 0.71493,0.1488 0.51923,0.518 0.0599,1.09346 -1.07257,1.34366 -2.75222,0.60806 -6.96889,1.98535 -9.19889,3.00463 -0.32122,0.14682 -0.32566,0.0637 0.13679,2.56514 1.73851,9.40388 5.85446,17.83358 11.427,23.403132 3.96466,3.96255 8.40349,6.33402 13.14798,7.02441 1.28149,0.18647 4.05991,0.18651 5.39976,7e-5 z m -2.47242,-8.90101 c -1.33657,-0.15345 -3.36323,-1.04575 -4.76198,-2.096582 -4.60561,-3.46001 -7.86318,-10.80799 -8.88217,-20.03517 -0.29556,-2.67637 -0.29366,-2.58694 -0.0613,-2.8817 0.16344,-0.20728 0.29436,-0.26638 0.59016,-0.26638 0.57273,0 0.74918,0.2859 0.83381,1.35098 0.25519,3.21196 0.97405,7.07977 1.84243,9.91323 1.42905,4.66292 3.87934,8.63756 6.58472,10.68116 0.60549,0.45738 2.55454,1.519002 2.63726,1.43648 0.0204,-0.0203 -0.0723,-0.71872 -0.206,-1.55194 -1.37107,-8.54562 -1.58468,-17.68174 -0.61332,-26.23131 l 0.12563,-1.10576 -0.35124,-0.054 c -1.21928,-0.18743 -1.62167,-0.29861 -2.35993,-0.65204 -2.01527,-0.96477 -3.46835,-3.26656 -3.46249,-5.48485 0.006,-2.11696 1.2387,-4.33006 2.95661,-5.30631 0.41873,-0.23796 0.48922,-0.30842 0.30926,-0.30914 -0.394,-0.002 -0.98897,-0.40996 -1.29867,-0.89144 -0.16216,-0.25211 -0.38874,-0.82887 -0.50353,-1.2817 -0.38269,-1.50977 -0.14051,-3.60397 0.52961,-4.57963 0.79732,-1.16087 2.16226,-1.05066 2.8615,0.23104 0.37522,0.68777 0.56395,1.59326 0.56564,2.71386 0.002,1.20736 -0.20932,2.15276 -0.64025,2.86669 l -0.33425,0.55377 0.36472,-0.0773 c 0.20059,-0.0425 0.85778,-0.0773 1.46043,-0.0773 h 1.09571 l -0.22445,-0.29513 c -0.67376,-0.88595 -0.93489,-3.05172 -0.5507,-4.56739 0.36845,-1.4536 1.08835,-2.22658 1.99785,-2.14518 1.28844,0.11532 2.02997,1.67963 1.93542,4.08291 -0.0268,0.68039 -0.11232,1.36197 -0.20847,1.66074 -0.21819,0.67803 -0.72708,1.40483 -1.13262,1.61764 l -0.33041,0.17338 0.38655,0.19674 c 1.03664,0.5276 2.06763,1.64919 2.60714,2.83624 0.79566,1.75064 0.75242,3.55879 -0.12768,5.33988 -0.68849,1.39331 -2.13355,2.65321 -3.50706,3.0577 -0.48344,0.14237 -0.4535,0.0517 -0.66469,2.01206 -0.44814,4.15971 -0.58921,7.4053 -0.51525,11.85448 0.0745,4.48066 0.20177,6.34452 0.71552,10.47719 0.23439,1.88545 0.68289,4.81485 0.79636,5.201392 0.0498,0.16976 0.13988,0.18017 1.15296,0.13337 1.36185,-0.0629 2.01024,-0.23258 3.26835,-0.855282 1.26216,-0.62471 2.06845,-1.23886 3.23945,-2.46749 3.54877,-3.72344 5.88559,-10.11364 6.73802,-18.42564 0.19827,-1.93337 0.25896,-2.06342 0.93922,-2.01291 0.29571,0.022 0.45213,0.0958 0.58416,0.27593 0.1716,0.23406 0.17321,0.31729 0.0333,1.72161 -0.70141,7.03979 -2.43402,12.77868 -5.07632,16.81424 -3.11171,4.752472 -6.97544,6.949892 -11.33905,6.448852 z m 19.64811,-60.994842 c -0.12208,-0.0485 -0.29615,-0.24327 -0.38682,-0.43294 -0.23333,-0.48815 -0.0943,-0.7207 0.77338,-1.29346 0.88038,-0.58115 1.99029,-1.68723 2.42553,-2.41717 0.3572,-0.59903 0.58304,-1.47569 0.4828,-1.87411 -0.20927,-0.83182 -1.06838,-1.21687 -2.52248,-1.13056 -1.10059,0.0653 -1.67531,0.22324 -2.98036,0.81891 -0.77925,0.35567 -0.99537,0.41703 -1.19803,0.34016 -0.51257,-0.19442 -0.74097,-0.90298 -0.39044,-1.21126 0.20727,-0.18228 1.28721,-0.72894 1.84374,-0.93328 0.85432,-0.31369 1.81728,-0.52297 2.6677,-0.57978 3.66379,-0.24477 5.27086,2.5605 3.23456,5.64617 -0.50285,0.76197 -1.6943,1.92966 -2.59359,2.54184 -0.83911,0.57121 -1.04231,0.64996 -1.35599,0.52548 z m -42.65724,-0.51653 c -3.07261,-2.10668 -4.33313,-5.07276 -2.93885,-6.9153 1.22403,-1.61757 4.1756,-1.73037 7.17682,-0.27428 0.71618,0.34747 0.92713,0.49873 1.02532,0.73523 0.10822,0.26064 0.0992,0.33072 -0.0724,0.56204 -0.1078,0.14535 -0.31223,0.32116 -0.45428,0.39068 -0.23048,0.11281 -0.32272,0.094 -0.85669,-0.17494 -0.32912,-0.16574 -1.00765,-0.44238 -1.50784,-0.61474 -0.81267,-0.28004 -1.03011,-0.31377 -2.04347,-0.31695 -0.99281,-0.003 -1.18595,0.0241 -1.55108,0.21876 -0.81156,0.4326 -0.96804,1.34049 -0.42182,2.44738 0.39644,0.80338 1.57421,2.05145 2.54945,2.70161 0.41508,0.27673 0.7873,0.55376 0.82715,0.61562 0.15089,0.23426 0.0712,0.66676 -0.16658,0.90396 -0.37214,0.37127 -0.70334,0.31223 -1.56576,-0.27907 z m 50.39939,90.870062 -0.0258,-3.9944 -1.14096,-0.33026 c -2.43888,-0.70595 -4.75002,-1.60982 -6.83855,-2.67449 l -1.11393,-0.56785 0.14949,0.43767 c 0.25334,0.74175 1.24666,2.61141 1.9371,3.64607 1.28504,1.92571 3.09701,3.96886 5.42469,6.11679 0.81112,0.74848 1.51052,1.36088 1.55422,1.36088 0.0437,0 0.0679,-1.79748 0.0537,-3.99441 z m 28.717491,-8.6414 c 1.77137,-1.43088 3.70794,-3.38057 7.77406,-7.82669 1.6082,-1.75849 3.65285,-3.94985 4.54366,-4.86968 3.87501,-4.00123 6.43718,-7.29279 8.9596,-11.510162 1.99424,-3.33428 3.0711,-5.84861 3.81589,-8.90953 1.85307,-7.6157 2.13204,-16.39863 0.69804,-21.97641 -0.18148,-0.7059 -0.56915,-1.94751 -0.86147,-2.75912 -0.80277,-2.22876 -2.28913,-6.04767 -2.35435,-6.04902 -0.0317,-6.9e-4 -0.21806,0.23122 -0.41421,0.51529 -0.58804,0.85156 -1.07325,1.26442 -1.60178,1.36292 -0.25571,0.0477 -0.63873,0.0589 -0.85118,0.025 l -0.38626,-0.0616 0.21077,0.52965 c 2.10819,5.29813 2.87161,7.54864 3.19705,9.42466 0.22158,1.2773 0.90375,5.97001 1.10236,7.58321 0.25415,2.06442 0.25478,7.11045 0.001,8.50965 -0.39316,2.16812 -0.97298,3.97157 -1.7674,5.49723 -1.00797,1.93578 -3.15361,4.83478 -5.61532,7.58696 -1.83539,2.051952 -9.66207,9.948422 -12.25773,12.367022 -3.66014,3.41049 -5.19956,5.08574 -6.34276,6.90248 l -0.52472,0.83385 0.29449,0.9174 c 0.16197,0.50458 0.4109,1.33797 0.55319,1.852 0.14229,0.51402 0.27965,0.99481 0.30527,1.0684 0.0514,0.14785 0.23714,0.0242 1.52175,-1.01353 z m 20.59152,-63.699162 c 0.1179,-0.15909 0.52076,-0.74809 0.89526,-1.30888 0.37449,-0.5608 0.94621,-1.34924 1.27047,-1.75209 0.79849,-0.992 1.30775,-1.79719 1.8863,-2.98248 1.04965,-2.15044 1.67569,-3.99083 1.88783,-5.54977 0.16207,-1.19093 0.0494,-1.99342 -0.59684,-4.25143 -0.43265,-1.51168 -0.61918,-1.97352 -1.52968,-3.78753 -1.45382,-2.89647 -2.44441,-5.73147 -3.20946,-9.1852 -0.16522,-0.74591 -0.24603,-0.96558 -0.30085,-0.81776 -0.13351,0.360055 -0.27397,1.31216 -0.43077,2.91978 -0.16874,1.73018 -0.19979,1.8877 -0.42161,2.13972 -0.15398,0.17494 -0.57729,0.2283 -0.76845,0.0969 -0.652,-0.4483 -2.51033,-4.553755 -2.87841,-6.359044 -0.0773,-0.379075 -0.0917,-0.353924 -1.09746,1.918354 -0.86034,1.94371 -1.46828,3.18718 -2.78867,5.70384 -0.12189,0.23232 -0.4218,1.78473 -0.88376,4.57455 -0.6712,4.05338 -0.70124,4.30595 -0.74848,6.2919 -0.0849,3.56938 0.17344,5.1369 1.15747,7.02307 0.52743,1.01097 1.13444,1.7182 2.41687,2.81587 1.22321,1.04699 1.92396,1.4508 3.57732,2.06145 0.63416,0.23422 1.30833,0.49436 1.49816,0.57809 0.53433,0.23568 0.81998,0.20099 1.06476,-0.12931 z"
       id="path179" /></g></svg>
